<?xml version="1.0" encoding="UTF-8"?>
<svg version="1.1" xmlns="http://www.w3.org/2000/svg" width="350" height="136">
<path d="M0 0 C51.15 0 102.3 0 155 0 C155 8.25 155 16.5 155 25 C103.85 25 52.7 25 0 25 C0 16.75 0 8.5 0 0 Z " fill="#F79D3B" transform="translate(160,87)"/>
<path d="M0 0 C5.40375 -0.0825 10.8075 -0.165 16.375 -0.25 C18.05899902 -0.28641602 19.74299805 -0.32283203 21.47802734 -0.36035156 C32.06688081 -0.4939634 41.42778184 0.51261579 49.4609375 8.203125 C55.61462365 15.38763167 56.98454497 22.90662399 56.4765625 32.15234375 C55.4312442 40.59200382 51.69807491 46.32052956 45.1171875 51.59765625 C38.33649311 56.088928 30.92694507 57.13160402 22.94921875 57.09765625 C21.14070435 57.09390991 21.14070435 57.09390991 19.2956543 57.09008789 C17.01461792 57.07643188 17.01461792 57.07643188 14.6875 57.0625 C7.4171875 57.0315625 7.4171875 57.0315625 0 57 C0 38.19 0 19.38 0 0 Z M12 10 C12 22.21 12 34.42 12 47 C27.45537453 47.61040833 27.45537453 47.61040833 39.8125 42.3125 C43.66652748 38.23824238 45.12654397 33.50075466 45.375 27.9375 C44.71455002 21.00277521 42.35025718 16.45854765 37 12 C32.1461412 9.2867211 27.07842002 9.7767065 21.6875 9.875 C18.490625 9.91625 15.29375 9.9575 12 10 Z " fill="#273C88" transform="translate(259,24)"/>
<path d="M0 0 C8.28813097 4.86403309 12.88156096 11.10979571 15.3125 20.4375 C16.45842399 28.51743345 14.51344693 35.04960016 11.3125 42.4375 C7.44668031 40.86253642 4.9064207 38.70009576 2.3125 35.4375 C1.9296875 31.87890625 1.9296875 31.87890625 2.1875 28 C2.53338255 22.47145792 2.28705343 19.18033634 -0.6875 14.4375 C-3.89582779 10.92003646 -7.28741472 8.67401891 -12.10546875 8.19921875 C-18.45298865 8.02911596 -23.58720163 8.37169611 -28.6875 12.4375 C-32.70006789 16.93997443 -33.92529228 22.51250907 -33.6875 28.4375 C-32.87361748 33.24253718 -31.52628665 37.10264536 -27.8125 40.375 C-23.21378057 43.41015483 -20.20260674 44.42124041 -14.75 44.625 C-10.62089761 44.94594667 -8.79126768 45.73788942 -6.0625 48.875 C-3.6875 52.0176105 -3.6875 52.0176105 -3.6875 54.4375 C-14.7617862 56.99310451 -24.91543295 56.12245858 -34.64453125 50.2578125 C-40.32103334 46.07773035 -43.51433316 40.03379085 -45.6875 33.4375 C-47.07035178 23.77864981 -45.74075956 16.17363189 -40.14453125 8.25390625 C-30.67845133 -3.55161676 -13.55330773 -6.40206496 0 0 Z " fill="#F89E3C" transform="translate(145.6875,26.5625)"/>
<path d="M0 0 C3.63 0 7.26 0 11 0 C11.01981934 1.08418213 11.03963867 2.16836426 11.06005859 3.28540039 C11.13648765 7.33168634 11.2251458 11.37763007 11.31738281 15.42358398 C11.35551913 17.17025973 11.39039802 18.91700991 11.421875 20.66381836 C11.46786087 23.18370046 11.52579747 25.7030769 11.5859375 28.22265625 C11.59748871 28.99585709 11.60903992 29.76905792 11.62094116 30.56568909 C11.74988951 35.36961944 12.33681662 39.47224325 14 44 C18.78984771 46.97725123 24.54887895 46.52461917 30 46 C33.25567706 44.73759461 34.47182068 43.99501637 36.09521484 40.93676758 C37.31026077 36.99295012 37.35517598 33.30502588 37.4140625 29.19921875 C37.43342865 28.36284378 37.4527948 27.52646881 37.4727478 26.66474915 C37.53230192 24.0057683 37.57883174 21.3467436 37.625 18.6875 C37.66320206 16.87953891 37.70225509 15.07159558 37.7421875 13.26367188 C37.83798345 8.84259302 37.92210331 4.42142899 38 0 C41.96 0 45.92 0 50 0 C50.04982621 4.81972791 50.08591929 9.6393024 50.10986328 14.45922852 C50.11985617 16.09532283 50.13345507 17.73139959 50.15087891 19.36743164 C50.38770005 42.19281105 50.38770005 42.19281105 44 50 C37.51831536 56.428117 30.88994824 57.86548909 22 58 C15.08208625 57.50031121 9.90559569 54.89449706 5 50 C3.35803388 47.71738236 2.22786209 45.55395315 1 43 C0.67 42.34 0.34 41.68 0 41 C-0.08711775 37.93757679 -0.1154846 34.89813535 -0.09765625 31.8359375 C-0.0962413 30.92872955 -0.09482635 30.02152161 -0.09336853 29.08682251 C-0.08776096 26.18284845 -0.07520718 23.27895085 -0.0625 20.375 C-0.05748598 18.40885528 -0.0529229 16.44270935 -0.04882812 14.4765625 C-0.03778906 9.6510121 -0.02051935 4.82551903 0 0 Z " fill="#273C88" transform="translate(171,24)"/>
<path d="M0 0 C3.63 0 7.26 0 11 0 C11 15.51 11 31.02 11 47 C20.57 47 30.14 47 40 47 C40 50.3 40 53.6 40 57 C26.8 57 13.6 57 0 57 C0 38.19 0 19.38 0 0 Z " fill="#273C88" transform="translate(31,24)"/>
<path d="M0 0 C3.96 0 7.92 0 12 0 C12 18.81 12 37.62 12 57 C8.04 57 4.08 57 0 57 C0 38.19 0 19.38 0 0 Z " fill="#273C88" transform="translate(234,24)"/>
<path d="M0 0 C3.96 0 7.92 0 12 0 C12 18.81 12 37.62 12 57 C8.04 57 4.08 57 0 57 C0 38.19 0 19.38 0 0 Z " fill="#273C88" transform="translate(78,24)"/>
<path d="M0 0 C1.45402342 1.6376272 2.83848678 3.33734196 4.1875 5.0625 C7.434908 9.12959137 10.75138325 12.88578267 14.4921875 16.49609375 C16.51997689 18.5186298 18.27232663 20.71947115 20 23 C18.50902342 26.7952131 16.24299151 28.61042731 13 31 C9.37598787 29.50153206 7.3682297 27.44211507 4.8125 24.5 C2.37472391 21.70992072 -0.06099025 18.93449537 -2.5859375 16.22265625 C-3.40320313 15.34480469 -4.22046875 14.46695313 -5.0625 13.5625 C-6.19365234 12.35787109 -6.19365234 12.35787109 -7.34765625 11.12890625 C-9 9 -9 9 -9 6 C-7.5390625 4.39453125 -7.5390625 4.39453125 -5.625 2.8125 C-4.68527344 2.01779297 -4.68527344 2.01779297 -3.7265625 1.20703125 C-2 0 -2 0 0 0 Z " fill="#F89E3C" transform="translate(140,55)"/>
<path d="M0 0 C1.8125 1.1875 1.8125 1.1875 3 3 C3.4334014 5.88934264 3.42525784 7.35092224 1.8125 9.8125 C-0.64907776 11.42525784 -2.11065736 11.4334014 -5 11 C-6.8125 9.8125 -6.8125 9.8125 -8 8 C-8.4334014 5.11065736 -8.42525784 3.64907776 -6.8125 1.1875 C-4.35092224 -0.42525784 -2.88934264 -0.4334014 0 0 Z " fill="#FEF4E9" transform="translate(234,95)"/>
<path d="M0 0 C4 1 4 1 5.25 3.0625 C5.4975 3.701875 5.745 4.34125 6 5 C6.433125 4.175 6.86625 3.35 7.3125 2.5 C7.869375 1.675 8.42625 0.85 9 0 C9.99 0 10.98 0 12 0 C12 3.3 12 6.6 12 10 C11.34 10 10.68 10 10 10 C9.67 8.68 9.34 7.36 9 6 C8.01 7.485 8.01 7.485 7 9 C6.01 8.67 5.02 8.34 4 8 C3.67 8.99 3.34 9.98 3 11 C2.01 11 1.02 11 0 11 C0 7.37 0 3.74 0 0 Z " fill="#FDE6CE" transform="translate(238,95)"/>
<path d="M0 0 C0.99 0 1.98 0 3 0 C3 1.32 3 2.64 3 4 C4.32 4 5.64 4 7 4 C7 2.68 7 1.36 7 0 C7.99 0 8.98 0 10 0 C10 3.63 10 7.26 10 11 C9.01 11 8.02 11 7 11 C7 9.68 7 8.36 7 7 C5.68 7 4.36 7 3 7 C3 8.32 3 9.64 3 11 C2.01 11 1.02 11 0 11 C0 7.37 0 3.74 0 0 Z " fill="#FDE3C8" transform="translate(215,95)"/>
<path d="M0 0 C2.64 0 5.28 0 8 0 C8 0.66 8 1.32 8 2 C6.02 2 4.04 2 2 2 C2 2.99 2 3.98 2 5 C3.65 5 5.3 5 7 5 C7 5.33 7 5.66 7 6 C5.35 6 3.7 6 2 6 C2 6.99 2 7.98 2 9 C3.98 9 5.96 9 8 9 C8 9.66 8 10.32 8 11 C5.36 11 2.72 11 0 11 C0 7.37 0 3.74 0 0 Z " fill="#FEF3E7" transform="translate(252,95)"/>
<path d="M0 0 C1.65 0 3.3 0 5 0 C5.625 1.875 5.625 1.875 6 4 C5.34 4.66 4.68 5.32 4 6 C1.875 5.625 1.875 5.625 0 5 C0 3.35 0 1.7 0 0 Z " fill="#F79C39" transform="translate(229,98)"/>
<path d="M0 0 C0.99 0 1.98 0 3 0 C3 3.3 3 6.6 3 10 C2.34 10 1.68 10 1 10 C0 8 -1 6 -2 4 C-1.0625 1.875 -1.0625 1.875 0 0 Z " fill="#FDF2E5" transform="translate(247,95)"/>
<path d="M0 0 C-0.33 0.99 -0.66 1.98 -1 3 C-2.32 3 -3.64 3 -5 3 C-5.12375 3.639375 -5.2475 4.27875 -5.375 4.9375 C-5.58125 5.618125 -5.7875 6.29875 -6 7 C-6.99 7.495 -6.99 7.495 -8 8 C-8.36075949 3.55063291 -8.36075949 3.55063291 -6.8125 1.1875 C-4.44017475 -0.36678206 -2.77958655 -0.22537188 0 0 Z " fill="#FCE0C2" transform="translate(234,95)"/>
<path d="M0 0 C2.375 -0.125 2.375 -0.125 5 0 C7 2 7 2 7 6 C6.34 6 5.68 6 5 6 C4.731875 5.38125 4.46375 4.7625 4.1875 4.125 C3.04443152 1.7004767 3.04443152 1.7004767 0 0 Z " fill="#FEFBF8" transform="translate(230,96)"/>
</svg>
