<?xml version="1.0" encoding="UTF-8"?>
<svg version="1.1" xmlns="http://www.w3.org/2000/svg" width="960" height="560">
<path d="M0 0 C1.39458242 -0.0032339 2.78916453 -0.00659932 4.18374634 -0.01008606 C7.08620994 -0.0160099 9.98864408 -0.01793324 12.89111328 -0.01733398 C15.80523954 -0.01725318 18.71920706 -0.02413479 21.63330078 -0.0378418 C44.78770098 -0.14492902 67.86100378 0.39935626 90.7890625 3.98046875 C91.90216797 4.15151123 93.01527344 4.32255371 94.16210938 4.4987793 C120.53848129 8.71998356 145.65967634 16.49917456 166.9140625 33.16796875 C167.59855469 33.68617187 168.28304688 34.204375 168.98828125 34.73828125 C173.46507008 38.35240286 177.03314616 42.56095184 180.6015625 47.04296875 C181.05337891 47.60773926 181.50519531 48.17250977 181.97070312 48.75439453 C184.48016265 51.99624037 186.60788218 55.30067493 188.57739258 58.89892578 C189.0178743 59.70089386 189.45835602 60.50286194 189.91218567 61.32913208 C190.24280502 61.93594818 190.57342438 62.54276428 190.9140625 63.16796875 C190.92436996 62.58136978 190.93467743 61.99477081 190.94529724 61.39039612 C191.05313444 55.30759005 191.16775006 49.22493901 191.28637695 43.14233398 C191.32979915 40.86958039 191.37146866 38.59679262 191.41137695 36.32397461 C191.46890369 33.06483643 191.53264802 29.80587144 191.59765625 26.546875 C191.61436874 25.52396866 191.63108124 24.50106232 191.64830017 23.44715881 C191.66824539 22.506259 191.68819061 21.56535919 191.70874023 20.59594727 C191.73205666 19.34685326 191.73205666 19.34685326 191.75584412 18.07252502 C191.9140625 16.16796875 191.9140625 16.16796875 192.9140625 15.16796875 C194.49328979 15.0698574 196.07690783 15.04164983 197.65917969 15.04098511 C198.68563599 15.03816528 199.71209229 15.03534546 200.76965332 15.03244019 C202.47308899 15.03547653 202.47308899 15.03547653 204.2109375 15.03857422 C205.39941284 15.0368219 206.58788818 15.03506958 207.81237793 15.03326416 C211.08089026 15.02960605 214.34936239 15.03047903 217.61787415 15.03364325 C221.03138313 15.03616728 224.44488935 15.03382919 227.85839844 15.03225708 C233.59180181 15.03043551 239.32519233 15.03284136 245.05859375 15.03759766 C251.69612026 15.04304026 258.33361605 15.04127759 264.97114182 15.03577125 C270.66030516 15.03123976 276.34945924 15.03058975 282.03862381 15.03320992 C285.4407527 15.03477249 288.84286714 15.034967 292.24499512 15.03167343 C296.03574738 15.02914866 299.82643973 15.03298504 303.6171875 15.03857422 C304.75281128 15.03654999 305.88843506 15.03452576 307.05847168 15.03244019 C308.08492798 15.03526001 309.11138428 15.03807983 310.16894531 15.04098511 C311.06639465 15.04136213 311.96384399 15.04173916 312.88848877 15.04212761 C314.9140625 15.16796875 314.9140625 15.16796875 315.9140625 16.16796875 C316.00964286 17.61010874 316.03594644 19.05690954 316.03431702 20.50221252 C316.03637901 21.90523117 316.03637901 21.90523117 316.03848267 23.33659363 C316.03488739 24.37093033 316.03129211 25.40526703 316.02758789 26.47094727 C316.02773392 27.55373962 316.02787994 28.63653198 316.0280304 29.75213623 C316.02733073 33.35040249 316.01953583 36.94861772 316.01171875 40.546875 C316.00985476 43.03409293 316.00843077 45.52131123 316.00743103 48.00852966 C316.003996 53.89818066 315.99610527 59.78781265 315.98608154 65.67745584 C315.97382496 73.03822249 315.96844041 80.39899139 315.96289062 87.75976562 C315.95215065 100.89584273 315.93526339 114.03190458 315.9140625 127.16796875 C322.42493646 127.12607734 328.93497092 127.05353636 335.4453125 126.96044922 C337.65649831 126.93235734 339.86778234 126.91108467 342.07910156 126.89697266 C345.27199159 126.87537962 348.4637152 126.82864526 351.65625 126.77734375 C352.63270477 126.77611511 353.60915955 126.77488647 354.61520386 126.77362061 C366.08182619 126.53313854 374.76106818 122.12113478 382.9140625 114.16796875 C393.43492245 102.03270098 395.50326972 91.20702827 395.453125 75.63671875 C395.46304495 73.9518507 395.47499111 72.26699348 395.48886108 70.58215332 C395.52103716 66.17711716 395.53160077 61.77232961 395.53570557 57.3671875 C395.544508 50.28939176 395.57985786 43.21179773 395.6278801 36.13417053 C395.6404831 33.66452475 395.63970709 31.19513534 395.63760376 28.72546387 C395.6441797 27.22127074 395.65118508 25.7170794 395.65869141 24.21289062 C395.65995026 22.89736206 395.66120911 21.5818335 395.6625061 20.22644043 C395.9140625 17.16796875 395.9140625 17.16796875 397.9140625 15.16796875 C399.85965824 14.91907978 399.85965824 14.91907978 402.28590393 14.92073059 C403.66357437 14.91443886 403.66357437 14.91443886 405.06907654 14.90802002 C406.58477989 14.91644928 406.58477989 14.91644928 408.13110352 14.92504883 C409.72384094 14.92220131 409.72384094 14.92220131 411.34875488 14.91929626 C414.87190037 14.91558002 418.39484147 14.92630415 421.91796875 14.9375 C424.35652136 14.93869134 426.79507443 14.93914506 429.23362732 14.93888855 C434.34905868 14.94045484 439.46442019 14.94875618 444.57983398 14.9621582 C451.15325838 14.97915721 457.72660599 14.98297238 464.30004978 14.98221302 C469.33644857 14.98248428 474.37283039 14.9879583 479.40922356 14.99521446 C481.83385019 14.99840763 484.25847875 15.00037004 486.68310738 15.00110817 C490.06424391 15.00326439 493.44529721 15.01199273 496.82641602 15.02270508 C498.34515572 15.0220253 498.34515572 15.0220253 499.89457703 15.02133179 C500.81020416 15.02559677 501.7258313 15.02986176 502.66920471 15.03425598 C503.86963079 15.03676975 503.86963079 15.03676975 505.0943079 15.0393343 C506.9140625 15.16796875 506.9140625 15.16796875 507.9140625 16.16796875 C508.01866102 17.72819396 508.05369666 19.29313275 508.06123352 20.85684204 C508.07196648 22.37879936 508.07196648 22.37879936 508.08291626 23.9315033 C508.08694962 25.61597313 508.08694962 25.61597313 508.09106445 27.33447266 C508.10092125 29.09808388 508.10092125 29.09808388 508.11097717 30.89732361 C508.13078487 34.81305281 508.14239749 38.72876859 508.15234375 42.64453125 C508.15639189 43.99540604 508.16050883 45.34628063 508.16469383 46.697155 C508.18377233 53.05582224 508.19798716 59.41447782 508.2063058 65.77316821 C508.21603218 73.08625162 508.24221855 80.39902862 508.28280669 87.7120043 C508.3131528 93.37675797 508.32779277 99.04142492 508.33108681 104.70625818 C508.3334201 108.08213843 508.3421492 111.45769248 508.36754799 114.83348465 C508.54320665 141.90849622 508.54320665 141.90849622 503.9140625 154.16796875 C503.63901886 154.91582138 503.36397522 155.66367401 503.08059692 156.43418884 C496.68748964 172.24763335 483.91282052 183.63236085 468.9140625 191.16796875 C471.04247381 193.29638006 472.55042184 193.93113254 475.2890625 195.10546875 C489.4285947 202.06269154 499.60044412 215.59191285 504.9140625 230.16796875 C507.77764309 238.58636505 508.33530899 246.30954718 508.27050781 255.16064453 C508.27130057 256.53008657 508.27340361 257.89952838 508.27670288 259.26896667 C508.28179135 262.95225915 508.26839905 266.63526736 508.25117588 270.31851435 C508.23604405 274.18172628 508.23731186 278.044936 508.23651123 281.90817261 C508.23283248 288.38218999 508.21792648 294.85610046 508.1953125 301.33007812 C508.16631508 309.64863977 508.15607567 317.96711604 508.1516304 326.28572273 C508.14765859 333.44151275 508.13516632 340.59728413 508.12128353 347.75306082 C508.11718156 350.05411455 508.11425777 352.35516762 508.11148834 354.6562233 C508.10660957 358.25960409 508.09643051 361.8629326 508.08205032 365.46628761 C508.07534424 367.42572316 508.0735206 369.38517348 508.07180786 371.34461975 C508.06609772 372.49966507 508.06038757 373.65471039 508.05450439 374.84475708 C508.05152973 375.85458208 508.04855507 376.86440708 508.04549026 377.90483284 C507.9140625 380.16796875 507.9140625 380.16796875 506.9140625 381.16796875 C505.53530225 381.26336065 504.15169334 381.28985497 502.76963806 381.28822327 C501.87636307 381.28959793 500.98308807 381.2909726 500.06274414 381.29238892 C499.07516113 381.28879364 498.08757813 381.28519836 497.07006836 381.28149414 C495.5190316 381.28171318 495.5190316 381.28171318 493.93666077 381.28193665 C490.50072164 381.28123702 487.06483597 381.27344233 483.62890625 381.265625 C481.25378957 381.263761 478.8786725 381.26233701 476.5035553 381.26133728 C470.23830106 381.25751072 463.97306983 381.24767925 457.70782471 381.2366333 C451.3201936 381.22642215 444.93255879 381.2218403 438.54492188 381.21679688 C426.00129224 381.20605711 413.45767859 381.18917002 400.9140625 381.16796875 C399.35300307 378.04584988 399.76986928 374.72418599 399.7722168 371.296875 C399.76874237 370.48359238 399.76526794 369.67030975 399.76168823 368.8323822 C399.75432485 367.06176439 399.74898258 365.29113731 399.74539757 363.52050781 C399.7382329 360.71151259 399.72256339 357.90269213 399.70405579 355.09375 C399.65160736 347.10533136 399.6036733 339.11700482 399.58813477 331.12841797 C399.5780099 326.24352128 399.54856471 321.35905915 399.50681496 316.47433472 C399.49455665 314.61818745 399.48937419 312.76197863 399.49161339 310.90579224 C399.50253928 298.88496848 399.4006442 288.36893473 390.9140625 278.91796875 C390.2540625 278.1496875 389.5940625 277.38140625 388.9140625 276.58984375 C379.93366707 269.34004536 371.40537473 267.2777433 360.0546875 267.36328125 C358.78429626 267.34957489 357.51390503 267.33586853 356.20501709 267.32174683 C352.87050936 267.29095783 349.53798907 267.2852837 346.20349121 267.29241943 C342.78393981 267.29334048 339.36470717 267.26067981 335.9453125 267.23046875 C329.2681647 267.17388275 322.59144127 267.16737689 315.9140625 267.16796875 C315.91544519 268.04014369 315.91544519 268.04014369 315.91685581 268.92993832 C315.9389119 283.05871121 315.95547447 297.18748153 315.96587467 311.31626797 C315.97103743 318.14875849 315.97807973 324.98123754 315.98950195 331.8137207 C316.00050957 338.4013218 316.00633873 344.98891406 316.00893974 351.57652473 C316.0107945 354.09605154 316.01441607 356.61557766 316.01979256 359.13509941 C316.02699926 362.6505464 316.0280536 366.16594336 316.02758789 369.68139648 C316.03118317 370.73443466 316.03477844 371.78747284 316.03848267 372.87242126 C316.037108 373.82459534 316.03573334 374.77676941 316.03431702 375.75779724 C316.03569971 377.00636584 316.03569971 377.00636584 316.03711033 378.28015804 C315.9140625 380.16796875 315.9140625 380.16796875 314.9140625 381.16796875 C313.33483521 381.2660801 311.75121717 381.29428767 310.16894531 381.29495239 C309.14248901 381.29777222 308.11603271 381.30059204 307.05847168 381.30349731 C305.35503601 381.30046097 305.35503601 381.30046097 303.6171875 381.29736328 C302.42871216 381.2991156 301.24023682 381.30086792 300.01574707 381.30267334 C296.74723474 381.30633145 293.47876261 381.30545847 290.21025085 381.30229425 C286.79674187 381.29977022 283.38323565 381.30210831 279.96972656 381.30368042 C274.23632319 381.30550199 268.50293267 381.30309614 262.76953125 381.29833984 C256.13200474 381.29289724 249.49450895 381.29465991 242.85698318 381.30016625 C237.16781984 381.30469774 231.47866576 381.30534775 225.78950119 381.30272758 C222.3873723 381.30116501 218.98525786 381.3009705 215.58312988 381.30426407 C211.79237762 381.30678884 208.00168527 381.30295246 204.2109375 381.29736328 C203.07531372 381.29938751 201.93968994 381.30141174 200.76965332 381.30349731 C199.74319702 381.30067749 198.71674072 381.29785767 197.65917969 381.29495239 C196.76173035 381.29457537 195.86428101 381.29419834 194.93963623 381.29380989 C192.9140625 381.16796875 192.9140625 381.16796875 191.9140625 380.16796875 C191.791527 378.63414196 191.73628312 377.09486356 191.70874023 375.55639648 C191.68879501 374.57545517 191.66884979 373.59451385 191.64830017 372.58384705 C191.62323143 370.9838662 191.62323143 370.9838662 191.59765625 369.3515625 C191.57687515 368.26537125 191.55609406 367.17917999 191.53468323 366.06007385 C191.46906808 362.57527248 191.41024739 359.09039307 191.3515625 355.60546875 C191.30838865 353.24934074 191.26477474 350.89322076 191.22070312 348.53710938 C191.11337458 342.74747938 191.01163085 336.957771 190.9140625 331.16796875 C190.23569336 332.26713623 189.55732422 333.36630371 188.85839844 334.4987793 C187.95522203 335.95500463 187.05189369 337.41113573 186.1484375 338.8671875 C185.70290527 339.58998901 185.25737305 340.31279053 184.79833984 341.05749512 C169.71355194 365.32462869 143.36766498 378.03779123 116.36328125 384.53515625 C90.77304381 390.3666775 64.64613443 392.32348453 38.45703125 392.3359375 C36.81822178 392.33916799 35.17941257 392.34253323 33.54060364 392.34602356 C30.12447444 392.3519596 26.70837031 392.35386944 23.29223633 392.35327148 C19.85142718 392.35319063 16.41075232 392.36007787 12.9699707 392.3737793 C-11.9537145 392.47141363 -36.91715905 392.42110005 -61.5859375 388.35546875 C-62.64796387 388.18515137 -63.70999023 388.01483398 -64.80419922 387.83935547 C-90.43995325 383.55064553 -114.43479258 375.78191364 -134.0859375 358.16796875 C-134.78074219 357.56726563 -135.47554687 356.9665625 -136.19140625 356.34765625 C-166.9982077 327.93898904 -170.90347747 277.71256033 -172.64624023 238.76416016 C-178.17385243 87.91657816 -178.17385243 87.91657816 -140.0859375 43.16796875 C-139.66570312 42.60464844 -139.24546875 42.04132813 -138.8125 41.4609375 C-118.93887613 15.74567268 -81.50258542 7.13603806 -51.125 3.23046875 C-34.10071606 1.20616147 -17.14400234 0.01491041 0 0 Z M-36.8359375 125.73046875 C-57.60869371 151.68396032 -55.12707246 193.37695418 -52.140625 224.40942383 C-50.25107482 240.90464475 -46.25040521 257.36952939 -33.765625 269.09765625 C-13.04168769 285.10886146 16.20705148 284.69002203 40.9921875 281.859375 C56.18569597 279.89429324 69.40614113 274.54852027 79.9140625 263.16796875 C93.44527817 245.45543322 93.43786982 220.52178226 93.30517578 199.22949219 C93.2890704 196.16946883 93.30514886 193.11076554 93.32421875 190.05078125 C93.34698524 169.10938942 92.73371285 145.18691763 78.9140625 128.16796875 C78.36363281 127.4821875 77.81320312 126.79640625 77.24609375 126.08984375 C65.16849324 112.59589349 46.12294566 109.35670374 28.9140625 108.16796875 C6.42150931 107.03040311 -20.21261227 108.55670229 -36.8359375 125.73046875 Z " fill="#E11219" transform="translate(312.0859375,83.83203125)"/>
<path d="M0 0 C1.39458242 -0.0032339 2.78916453 -0.00659932 4.18374634 -0.01008606 C7.08620994 -0.0160099 9.98864408 -0.01793324 12.89111328 -0.01733398 C15.80523954 -0.01725318 18.71920706 -0.02413479 21.63330078 -0.0378418 C44.78770098 -0.14492902 67.86100378 0.39935626 90.7890625 3.98046875 C91.90216797 4.15151123 93.01527344 4.32255371 94.16210938 4.4987793 C120.53848129 8.71998356 145.65967634 16.49917456 166.9140625 33.16796875 C167.59855469 33.68617187 168.28304688 34.204375 168.98828125 34.73828125 C173.46507008 38.35240286 177.03314616 42.56095184 180.6015625 47.04296875 C181.05337891 47.60773926 181.50519531 48.17250977 181.97070312 48.75439453 C184.48016265 51.99624037 186.60788218 55.30067493 188.57739258 58.89892578 C189.0178743 59.70089386 189.45835602 60.50286194 189.91218567 61.32913208 C190.24280502 61.93594818 190.57342438 62.54276428 190.9140625 63.16796875 C190.92436996 62.58136978 190.93467743 61.99477081 190.94529724 61.39039612 C191.05313444 55.30759005 191.16775006 49.22493901 191.28637695 43.14233398 C191.32979915 40.86958039 191.37146866 38.59679262 191.41137695 36.32397461 C191.46890369 33.06483643 191.53264802 29.80587144 191.59765625 26.546875 C191.61436874 25.52396866 191.63108124 24.50106232 191.64830017 23.44715881 C191.66824539 22.506259 191.68819061 21.56535919 191.70874023 20.59594727 C191.73205666 19.34685326 191.73205666 19.34685326 191.75584412 18.07252502 C191.9140625 16.16796875 191.9140625 16.16796875 192.9140625 15.16796875 C194.49328979 15.0698574 196.07690783 15.04164983 197.65917969 15.04098511 C198.68563599 15.03816528 199.71209229 15.03534546 200.76965332 15.03244019 C202.47308899 15.03547653 202.47308899 15.03547653 204.2109375 15.03857422 C205.39941284 15.0368219 206.58788818 15.03506958 207.81237793 15.03326416 C211.08089026 15.02960605 214.34936239 15.03047903 217.61787415 15.03364325 C221.03138313 15.03616728 224.44488935 15.03382919 227.85839844 15.03225708 C233.59180181 15.03043551 239.32519233 15.03284136 245.05859375 15.03759766 C251.69612026 15.04304026 258.33361605 15.04127759 264.97114182 15.03577125 C270.66030516 15.03123976 276.34945924 15.03058975 282.03862381 15.03320992 C285.4407527 15.03477249 288.84286714 15.034967 292.24499512 15.03167343 C296.03574738 15.02914866 299.82643973 15.03298504 303.6171875 15.03857422 C304.75281128 15.03654999 305.88843506 15.03452576 307.05847168 15.03244019 C308.08492798 15.03526001 309.11138428 15.03807983 310.16894531 15.04098511 C311.06639465 15.04136213 311.96384399 15.04173916 312.88848877 15.04212761 C314.9140625 15.16796875 314.9140625 15.16796875 315.9140625 16.16796875 C316.00964286 17.61010874 316.03594644 19.05690954 316.03431702 20.50221252 C316.03637901 21.90523117 316.03637901 21.90523117 316.03848267 23.33659363 C316.03488739 24.37093033 316.03129211 25.40526703 316.02758789 26.47094727 C316.02773392 27.55373962 316.02787994 28.63653198 316.0280304 29.75213623 C316.02733073 33.35040249 316.01953583 36.94861772 316.01171875 40.546875 C316.00985476 43.03409293 316.00843077 45.52131123 316.00743103 48.00852966 C316.003996 53.89818066 315.99610527 59.78781265 315.98608154 65.67745584 C315.97382496 73.03822249 315.96844041 80.39899139 315.96289062 87.75976562 C315.95215065 100.89584273 315.93526339 114.03190458 315.9140625 127.16796875 C322.42493646 127.12607734 328.93497092 127.05353636 335.4453125 126.96044922 C337.65649831 126.93235734 339.86778234 126.91108467 342.07910156 126.89697266 C345.27199159 126.87537962 348.4637152 126.82864526 351.65625 126.77734375 C352.63270477 126.77611511 353.60915955 126.77488647 354.61520386 126.77362061 C366.08182619 126.53313854 374.76106818 122.12113478 382.9140625 114.16796875 C393.43492245 102.03270098 395.50326972 91.20702827 395.453125 75.63671875 C395.46304495 73.9518507 395.47499111 72.26699348 395.48886108 70.58215332 C395.52103716 66.17711716 395.53160077 61.77232961 395.53570557 57.3671875 C395.544508 50.28939176 395.57985786 43.21179773 395.6278801 36.13417053 C395.6404831 33.66452475 395.63970709 31.19513534 395.63760376 28.72546387 C395.6441797 27.22127074 395.65118508 25.7170794 395.65869141 24.21289062 C395.65995026 22.89736206 395.66120911 21.5818335 395.6625061 20.22644043 C395.9140625 17.16796875 395.9140625 17.16796875 397.9140625 15.16796875 C399.85965824 14.91907978 399.85965824 14.91907978 402.28590393 14.92073059 C403.66357437 14.91443886 403.66357437 14.91443886 405.06907654 14.90802002 C406.58477989 14.91644928 406.58477989 14.91644928 408.13110352 14.92504883 C409.72384094 14.92220131 409.72384094 14.92220131 411.34875488 14.91929626 C414.87190037 14.91558002 418.39484147 14.92630415 421.91796875 14.9375 C424.35652136 14.93869134 426.79507443 14.93914506 429.23362732 14.93888855 C434.34905868 14.94045484 439.46442019 14.94875618 444.57983398 14.9621582 C451.15325838 14.97915721 457.72660599 14.98297238 464.30004978 14.98221302 C469.33644857 14.98248428 474.37283039 14.9879583 479.40922356 14.99521446 C481.83385019 14.99840763 484.25847875 15.00037004 486.68310738 15.00110817 C490.06424391 15.00326439 493.44529721 15.01199273 496.82641602 15.02270508 C498.34515572 15.0220253 498.34515572 15.0220253 499.89457703 15.02133179 C500.81020416 15.02559677 501.7258313 15.02986176 502.66920471 15.03425598 C503.86963079 15.03676975 503.86963079 15.03676975 505.0943079 15.0393343 C506.9140625 15.16796875 506.9140625 15.16796875 507.9140625 16.16796875 C508.01866102 17.72819396 508.05369666 19.29313275 508.06123352 20.85684204 C508.07196648 22.37879936 508.07196648 22.37879936 508.08291626 23.9315033 C508.08694962 25.61597313 508.08694962 25.61597313 508.09106445 27.33447266 C508.10092125 29.09808388 508.10092125 29.09808388 508.11097717 30.89732361 C508.13078487 34.81305281 508.14239749 38.72876859 508.15234375 42.64453125 C508.15639189 43.99540604 508.16050883 45.34628063 508.16469383 46.697155 C508.18377233 53.05582224 508.19798716 59.41447782 508.2063058 65.77316821 C508.21603218 73.08625162 508.24221855 80.39902862 508.28280669 87.7120043 C508.3131528 93.37675797 508.32779277 99.04142492 508.33108681 104.70625818 C508.3334201 108.08213843 508.3421492 111.45769248 508.36754799 114.83348465 C508.54320665 141.90849622 508.54320665 141.90849622 503.9140625 154.16796875 C503.63901886 154.91582138 503.36397522 155.66367401 503.08059692 156.43418884 C496.68748964 172.24763335 483.91282052 183.63236085 468.9140625 191.16796875 C471.04247381 193.29638006 472.55042184 193.93113254 475.2890625 195.10546875 C489.4285947 202.06269154 499.60044412 215.59191285 504.9140625 230.16796875 C507.77764309 238.58636505 508.33530899 246.30954718 508.27050781 255.16064453 C508.27130057 256.53008657 508.27340361 257.89952838 508.27670288 259.26896667 C508.28179135 262.95225915 508.26839905 266.63526736 508.25117588 270.31851435 C508.23604405 274.18172628 508.23731186 278.044936 508.23651123 281.90817261 C508.23283248 288.38218999 508.21792648 294.85610046 508.1953125 301.33007812 C508.16631508 309.64863977 508.15607567 317.96711604 508.1516304 326.28572273 C508.14765859 333.44151275 508.13516632 340.59728413 508.12128353 347.75306082 C508.11718156 350.05411455 508.11425777 352.35516762 508.11148834 354.6562233 C508.10660957 358.25960409 508.09643051 361.8629326 508.08205032 365.46628761 C508.07534424 367.42572316 508.0735206 369.38517348 508.07180786 371.34461975 C508.06609772 372.49966507 508.06038757 373.65471039 508.05450439 374.84475708 C508.05152973 375.85458208 508.04855507 376.86440708 508.04549026 377.90483284 C507.9140625 380.16796875 507.9140625 380.16796875 506.9140625 381.16796875 C505.53530225 381.26336065 504.15169334 381.28985497 502.76963806 381.28822327 C501.87636307 381.28959793 500.98308807 381.2909726 500.06274414 381.29238892 C499.07516113 381.28879364 498.08757813 381.28519836 497.07006836 381.28149414 C495.5190316 381.28171318 495.5190316 381.28171318 493.93666077 381.28193665 C490.50072164 381.28123702 487.06483597 381.27344233 483.62890625 381.265625 C481.25378957 381.263761 478.8786725 381.26233701 476.5035553 381.26133728 C470.23830106 381.25751072 463.97306983 381.24767925 457.70782471 381.2366333 C451.3201936 381.22642215 444.93255879 381.2218403 438.54492188 381.21679688 C426.00129224 381.20605711 413.45767859 381.18917002 400.9140625 381.16796875 C399.35300307 378.04584988 399.76986928 374.72418599 399.7722168 371.296875 C399.76874237 370.48359238 399.76526794 369.67030975 399.76168823 368.8323822 C399.75432485 367.06176439 399.74898258 365.29113731 399.74539757 363.52050781 C399.7382329 360.71151259 399.72256339 357.90269213 399.70405579 355.09375 C399.65160736 347.10533136 399.6036733 339.11700482 399.58813477 331.12841797 C399.5780099 326.24352128 399.54856471 321.35905915 399.50681496 316.47433472 C399.49455665 314.61818745 399.48937419 312.76197863 399.49161339 310.90579224 C399.50253928 298.88496848 399.4006442 288.36893473 390.9140625 278.91796875 C390.2540625 278.1496875 389.5940625 277.38140625 388.9140625 276.58984375 C379.93366707 269.34004536 371.40537473 267.2777433 360.0546875 267.36328125 C358.78429626 267.34957489 357.51390503 267.33586853 356.20501709 267.32174683 C352.87050936 267.29095783 349.53798907 267.2852837 346.20349121 267.29241943 C342.78393981 267.29334048 339.36470717 267.26067981 335.9453125 267.23046875 C329.2681647 267.17388275 322.59144127 267.16737689 315.9140625 267.16796875 C315.91544519 268.04014369 315.91544519 268.04014369 315.91685581 268.92993832 C315.9389119 283.05871121 315.95547447 297.18748153 315.96587467 311.31626797 C315.97103743 318.14875849 315.97807973 324.98123754 315.98950195 331.8137207 C316.00050957 338.4013218 316.00633873 344.98891406 316.00893974 351.57652473 C316.0107945 354.09605154 316.01441607 356.61557766 316.01979256 359.13509941 C316.02699926 362.6505464 316.0280536 366.16594336 316.02758789 369.68139648 C316.03118317 370.73443466 316.03477844 371.78747284 316.03848267 372.87242126 C316.037108 373.82459534 316.03573334 374.77676941 316.03431702 375.75779724 C316.03569971 377.00636584 316.03569971 377.00636584 316.03711033 378.28015804 C315.9140625 380.16796875 315.9140625 380.16796875 314.9140625 381.16796875 C313.33483521 381.2660801 311.75121717 381.29428767 310.16894531 381.29495239 C309.14248901 381.29777222 308.11603271 381.30059204 307.05847168 381.30349731 C305.35503601 381.30046097 305.35503601 381.30046097 303.6171875 381.29736328 C302.42871216 381.2991156 301.24023682 381.30086792 300.01574707 381.30267334 C296.74723474 381.30633145 293.47876261 381.30545847 290.21025085 381.30229425 C286.79674187 381.29977022 283.38323565 381.30210831 279.96972656 381.30368042 C274.23632319 381.30550199 268.50293267 381.30309614 262.76953125 381.29833984 C256.13200474 381.29289724 249.49450895 381.29465991 242.85698318 381.30016625 C237.16781984 381.30469774 231.47866576 381.30534775 225.78950119 381.30272758 C222.3873723 381.30116501 218.98525786 381.3009705 215.58312988 381.30426407 C211.79237762 381.30678884 208.00168527 381.30295246 204.2109375 381.29736328 C203.07531372 381.29938751 201.93968994 381.30141174 200.76965332 381.30349731 C199.74319702 381.30067749 198.71674072 381.29785767 197.65917969 381.29495239 C196.76173035 381.29457537 195.86428101 381.29419834 194.93963623 381.29380989 C192.9140625 381.16796875 192.9140625 381.16796875 191.9140625 380.16796875 C191.791527 378.63414196 191.73628312 377.09486356 191.70874023 375.55639648 C191.68879501 374.57545517 191.66884979 373.59451385 191.64830017 372.58384705 C191.62323143 370.9838662 191.62323143 370.9838662 191.59765625 369.3515625 C191.57687515 368.26537125 191.55609406 367.17917999 191.53468323 366.06007385 C191.46906808 362.57527248 191.41024739 359.09039307 191.3515625 355.60546875 C191.30838865 353.24934074 191.26477474 350.89322076 191.22070312 348.53710938 C191.11337458 342.74747938 191.01163085 336.957771 190.9140625 331.16796875 C190.23569336 332.26713623 189.55732422 333.36630371 188.85839844 334.4987793 C187.95522203 335.95500463 187.05189369 337.41113573 186.1484375 338.8671875 C185.70290527 339.58998901 185.25737305 340.31279053 184.79833984 341.05749512 C169.71355194 365.32462869 143.36766498 378.03779123 116.36328125 384.53515625 C90.77304381 390.3666775 64.64613443 392.32348453 38.45703125 392.3359375 C36.81822178 392.33916799 35.17941257 392.34253323 33.54060364 392.34602356 C30.12447444 392.3519596 26.70837031 392.35386944 23.29223633 392.35327148 C19.85142718 392.35319063 16.41075232 392.36007787 12.9699707 392.3737793 C-11.9537145 392.47141363 -36.91715905 392.42110005 -61.5859375 388.35546875 C-62.64796387 388.18515137 -63.70999023 388.01483398 -64.80419922 387.83935547 C-90.43995325 383.55064553 -114.43479258 375.78191364 -134.0859375 358.16796875 C-134.78074219 357.56726563 -135.47554687 356.9665625 -136.19140625 356.34765625 C-166.9982077 327.93898904 -170.90347747 277.71256033 -172.64624023 238.76416016 C-178.17385243 87.91657816 -178.17385243 87.91657816 -140.0859375 43.16796875 C-139.66570312 42.60464844 -139.24546875 42.04132813 -138.8125 41.4609375 C-118.93887613 15.74567268 -81.50258542 7.13603806 -51.125 3.23046875 C-34.10071606 1.20616147 -17.14400234 0.01491041 0 0 Z M-128.0859375 36.16796875 C-128.69308594 36.63332031 -129.30023438 37.09867188 -129.92578125 37.578125 C-153.62040306 56.0072753 -162.33801195 92.21268658 -166.14793396 120.34689331 C-169.15857737 144.65272254 -169.40276476 168.80836841 -169.34667969 193.26318359 C-169.33527049 198.28975115 -169.3420597 203.31610721 -169.35357094 208.34266758 C-169.39239471 228.36485593 -169.42682878 248.25356458 -167.0859375 268.16796875 C-166.92891784 269.59826751 -166.77224107 271.02860398 -166.6159668 272.45898438 C-166.20283879 276.05088213 -165.6760003 279.60094393 -165.0859375 283.16796875 C-164.97588379 283.85004395 -164.86583008 284.53211914 -164.75244141 285.23486328 C-159.74211758 315.19646598 -147.81560544 344.75591244 -122.5 363.03515625 C-110.03857385 371.25750488 -97.47933914 376.57399412 -83.0859375 380.16796875 C-82.24450195 380.38195312 -81.40306641 380.5959375 -80.53613281 380.81640625 C-49.91506179 388.45762764 -18.5300244 389.35520209 12.87133789 389.35327148 C16.81342546 389.3554477 20.75522759 389.37364375 24.69726562 389.39257812 C47.11150931 389.44296962 69.45022906 388.40366337 91.6640625 385.29296875 C92.91864258 385.12007324 94.17322266 384.94717773 95.46582031 384.76904297 C104.50373646 383.47472701 113.18012437 381.84162328 121.9140625 379.16796875 C122.61321777 378.96478027 123.31237305 378.7615918 124.03271484 378.55224609 C139.98492375 373.88950701 154.34577616 367.20065619 166.9140625 356.16796875 C167.74808594 355.5234375 168.58210938 354.87890625 169.44140625 354.21484375 C181.6457487 344.11203894 188.23824836 328.3575041 193.9140625 314.16796875 C194.2440625 335.28796875 194.5740625 356.40796875 194.9140625 378.16796875 C233.8540625 378.16796875 272.7940625 378.16796875 312.9140625 378.16796875 C312.9140625 340.21796875 312.9140625 302.26796875 312.9140625 263.16796875 C322.5665625 263.22984375 332.2190625 263.29171875 342.1640625 263.35546875 C345.18723633 263.36215576 348.21041016 263.36884277 351.32519531 263.37573242 C353.75588112 263.4022079 356.18654818 263.4304916 358.6171875 263.4609375 C359.85130371 263.45694946 361.08541992 263.45296143 362.35693359 263.44885254 C373.47653207 263.62887782 383.02780974 266.45303871 391.171875 274.29296875 C402.42043032 286.39903725 403.51796069 297.61543476 403.5234375 313.51953125 C403.53745662 315.17734337 403.55323961 316.83514154 403.57080078 318.49291992 C403.62319404 324.59279041 403.64163162 330.6929145 403.6640625 336.79296875 C403.7878125 357.27359375 403.7878125 357.27359375 403.9140625 378.16796875 C437.2440625 378.16796875 470.5740625 378.16796875 504.9140625 378.16796875 C505.00152918 354.46681181 505.00152918 354.46681181 505.06054688 330.765625 C505.07831716 321.09418949 505.09915758 311.42283264 505.14038086 301.75146484 C505.17039502 294.70646913 505.18966387 287.66153751 505.19632798 280.61647964 C505.20022001 276.89029865 505.20928985 273.16430094 505.23125267 269.43817902 C505.25564058 265.26632245 505.25602484 261.09477929 505.25463867 256.92285156 C505.2654245 255.70364517 505.27621033 254.48443878 505.287323 253.22828674 C505.22794611 236.63603476 499.83778961 222.66258582 488.9140625 210.16796875 C488.13289062 209.24564453 488.13289062 209.24564453 487.3359375 208.3046875 C478.84520836 199.01022429 467.82559079 195.00488599 455.9140625 192.16796875 C457.13029297 191.74837891 457.13029297 191.74837891 458.37109375 191.3203125 C475.41790957 185.14853168 490.10726331 174.83720855 498.34765625 158.2890625 C503.15760375 147.34179327 505.37499456 136.81712863 505.25463867 124.88183594 C505.25529579 123.13819511 505.25529579 123.13819511 505.25596619 121.35932922 C505.25389533 117.56098962 505.23064473 113.76310515 505.20703125 109.96484375 C505.20142923 107.3139776 505.19701421 104.66313585 505.19416809 102.01226807 C505.18489431 95.77583903 505.16034482 89.53957032 505.13011962 83.30321145 C505.09311557 75.49644272 505.07683589 67.68964722 505.06054688 59.8828125 C505.03144351 45.97774012 504.97132856 32.07301691 504.9140625 18.16796875 C470.2640625 18.16796875 435.6140625 18.16796875 399.9140625 18.16796875 C399.70423054 41.7418212 399.70423054 41.7418212 399.52612305 65.31591797 C399.47619629 69.90454102 399.47619629 69.90454102 399.4490509 72.06155396 C399.4330395 73.54856681 399.42265847 75.03564751 399.41694641 76.5227356 C399.34375125 93.36825285 395.73118607 105.53631743 384.05078125 118.12890625 C364.66004869 136.63340789 339.73738704 129.65213559 312.9140625 130.16796875 C312.9140625 93.20796875 312.9140625 56.24796875 312.9140625 18.16796875 C274.3040625 18.16796875 235.6940625 18.16796875 195.9140625 18.16796875 C195.5840625 39.28796875 195.2540625 60.40796875 194.9140625 82.16796875 C192.9340625 76.72296875 192.9340625 76.72296875 190.9140625 71.16796875 C189.6922771 68.56317265 188.47482958 66.05855689 187.1015625 63.54296875 C186.58335937 62.58559814 186.58335937 62.58559814 186.0546875 61.60888672 C183.15032075 56.36533447 179.82861691 51.71164797 175.9140625 47.16796875 C175.07875 46.100625 175.07875 46.100625 174.2265625 45.01171875 C152.42207812 18.32002235 113.83910558 9.95342472 81.4140625 5.98046875 C78.58133778 5.69995006 75.74855658 5.42938493 72.9140625 5.16796875 C72.039207 5.08594711 71.1643515 5.00392548 70.26298523 4.91941833 C53.93709659 3.42552034 37.72948585 2.85149918 21.33813477 2.90722656 C17.61392843 2.9179332 13.89020743 2.90725767 10.16601562 2.89453125 C-35.33705816 2.86651787 -91.88574049 4.22661845 -128.0859375 36.16796875 Z " fill="#FEF7F8" transform="translate(312.0859375,83.83203125)"/>
<path d="M0 0 C13.3883188 11.68108352 19.08214671 28.91182854 20.4375 46.1875 C20.59877657 50.80197434 20.62500744 55.41422411 20.640625 60.03125 C20.64486607 61.01306999 20.64486607 61.01306999 20.64919281 62.01472473 C20.66409889 65.48377876 20.67338053 68.95279218 20.67773438 72.421875 C20.68210548 75.25143424 20.6959555 78.08068623 20.71875 80.91015625 C21.11890484 131.60083716 21.11890484 131.60083716 3.33984375 150.40625 C-12.06655663 164.97032513 -33.35475334 167.58604847 -53.6875 167.5 C-54.69931335 167.49776428 -54.69931335 167.49776428 -55.73156738 167.4954834 C-76.50303231 167.41326634 -97.96350744 165.35419888 -113.8125 150.4375 C-135.67773373 127.33544496 -132.28743188 89.73223542 -131.62109375 60.27880859 C-131.03296528 39.2875234 -127.87243185 18.05316189 -112.7890625 2.18359375 C-86.1193285 -21.72558883 -28.09419854 -20.99626941 0 0 Z M-112.3125 6.75 C-133.08525621 32.70349157 -130.60363496 74.39648543 -127.6171875 105.42895508 C-125.72763732 121.924176 -121.72696771 138.38906064 -109.2421875 150.1171875 C-88.51825019 166.12839271 -59.26951102 165.70955328 -34.484375 162.87890625 C-19.29086653 160.91382449 -6.07042137 155.56805152 4.4375 144.1875 C17.96871567 126.47496447 17.96130732 101.54131351 17.82861328 80.24902344 C17.8125079 77.18900008 17.82858636 74.13029679 17.84765625 71.0703125 C17.87042274 50.12892067 17.25715035 26.20644888 3.4375 9.1875 C2.88707031 8.50171875 2.33664062 7.8159375 1.76953125 7.109375 C-10.30806926 -6.38457526 -29.35361684 -9.62376501 -46.5625 -10.8125 C-69.05505319 -11.95006564 -95.68917477 -10.42376646 -112.3125 6.75 Z " fill="#FDF5F6" transform="translate(387.5625,202.8125)"/>
</svg>
